<!--?xml version="1.0" standalone="no"?-->              <svg id="sw-js-blob-svg" viewBox="0 0 100 100" xmlns="http://www.w3.org/2000/svg">                    <defs>                         <linearGradient id="sw-gradient" x1="0" x2="1" y1="1" y2="0">                            <stop id="stop1" stop-color="rgba(128.298, 28.883, 255, 1)" offset="0%"></stop>                            <stop id="stop2" stop-color="rgba(77.832, 155.976, 255, 1)" offset="100%"></stop>                        </linearGradient>                    </defs>                <path fill="url(#sw-gradient)" d="M23.7,-27.4C31.1,-22.1,37.8,-14.9,39.3,-6.9C40.8,1.2,37.1,10.3,32,17.7C26.8,25.2,20.1,31.1,12.1,34.7C4,38.3,-5.4,39.6,-14.2,37.1C-22.9,34.7,-31,28.6,-35.3,20.6C-39.6,12.6,-40.2,2.7,-38.8,-7.1C-37.4,-17,-34.1,-26.8,-27.3,-32.3C-20.5,-37.8,-10.2,-38.9,-1,-37.7C8.2,-36.4,16.3,-32.8,23.7,-27.4Z" width="100%" height="100%" transform="translate(50 50)" stroke-width="0" style="transition: all 0.3s ease 0s;" stroke="url(#sw-gradient)"></path>              </svg>