<svg width="642" height="642" viewBox="0 0 642 642" fill="none" xmlns="http://www.w3.org/2000/svg">
<mask id="mask0_1_3661" style="mask-type:luminance" maskUnits="userSpaceOnUse" x="0" y="0" width="1252" height="642">
<path d="M1251.9 0H0V642H1251.9V0Z" fill="white"/>
</mask>
<g mask="url(#mask0_1_3661)">
<mask id="mask1_1_3661" style="mask-type:luminance" maskUnits="userSpaceOnUse" x="0" y="0" width="642" height="642">
<path d="M642 0H0V642H642V0Z" fill="white"/>
</mask>
<g mask="url(#mask1_1_3661)">
<path d="M444.05 28.0875L340.617 -57.2896L237.406 28.0875L133.973 -57.2896L30.5396 28.0875L-73.3396 -57.7354L-72.4479 -58.85L30.5396 26.0812L133.973 -59.2958L237.406 26.0812L340.617 -59.2958L444.05 26.0812L547.483 -59.2958L650.917 26.0812L753.904 -58.85L754.796 -57.7354L650.917 28.0875L547.483 -57.2896L444.05 28.0875Z" fill="#B8B8B8"/>
<path d="M444.05 56.175L340.617 -29.425L237.406 56.175L133.973 -29.425L30.5396 56.175L-73.3396 -29.6479L-72.4479 -30.9854L30.5396 54.1688L133.973 -31.2083L237.406 54.1688L340.617 -31.2083L444.05 54.1688L547.483 -31.2083L650.917 54.1688L753.904 -30.9854L754.796 -29.6479L650.917 56.175L547.483 -29.425L444.05 56.175Z" fill="#B8B8B8"/>
<path d="M444.05 84.2625L340.617 -1.3375L237.406 84.2625L133.973 -1.3375L30.5396 84.2625L-73.3396 -1.78334L-72.4479 -2.89792L30.5396 82.2562L133.973 -3.34375L237.406 82.2562L340.617 -3.34375L444.05 82.2562L547.483 -3.34375L650.917 82.2562L753.904 -2.89792L754.796 -1.78334L650.917 84.2625L547.483 -1.3375L444.05 84.2625Z" fill="#B8B8B8"/>
<path d="M444.05 112.127L340.617 26.75L237.406 112.127L133.973 26.75L30.5396 112.127L-73.3396 26.3042L-72.4479 25.1896L30.5396 110.344L133.973 24.7438L237.406 110.344L340.617 24.7438L444.05 110.344L547.483 24.7438L650.917 110.344L753.904 25.1896L754.796 26.3042L650.917 112.127L547.483 26.75L444.05 112.127Z" fill="#B8B8B8"/>
<path d="M444.05 140.215L340.617 54.8375L237.406 140.215L133.973 54.8375L30.5396 140.215L-73.3396 54.3916L-72.4479 53.277L30.5396 138.208L133.973 52.8312L237.406 138.208L340.617 52.8312L444.05 138.208L547.483 52.8312L650.917 138.208L753.904 53.277L754.796 54.3916L650.917 140.215L547.483 54.8375L444.05 140.215Z" fill="#B8B8B8"/>
<path d="M444.05 168.302L340.617 82.702L237.406 168.302L133.973 82.702L30.5396 168.302L-73.3396 82.4791L-72.4479 81.1416L30.5396 166.296L133.973 80.9187L237.406 166.296L340.617 80.9187L444.05 166.296L547.483 80.9187L650.917 166.296L753.904 81.1416L754.796 82.4791L650.917 168.302L547.483 82.702L444.05 168.302Z" fill="#B8B8B8"/>
<path d="M444.05 196.167L340.617 110.79L237.406 196.167L133.973 110.79L30.5396 196.167L-73.3396 110.344L-72.4479 109.229L30.5396 194.383L133.973 108.783L237.406 194.383L340.617 108.783L444.05 194.383L547.483 108.783L650.917 194.383L753.904 109.229L754.796 110.344L650.917 196.167L547.483 110.79L444.05 196.167Z" fill="#B8B8B8"/>
<path d="M444.05 224.254L340.617 138.877L237.406 224.254L133.973 138.877L30.5396 224.254L-73.3396 138.431L-72.4479 137.317L30.5396 222.471L133.973 136.871L237.406 222.471L340.617 136.871L444.05 222.471L547.483 136.871L650.917 222.471L753.904 137.317L754.796 138.431L650.917 224.254L547.483 138.877L444.05 224.254Z" fill="#B8B8B8"/>
<path d="M444.05 252.342L340.617 166.965L237.406 252.342L133.973 166.965L30.5396 252.342L-73.3396 166.519L-72.4479 165.404L30.5396 250.335L133.973 164.958L237.406 250.335L340.617 164.958L444.05 250.335L547.483 164.958L650.917 250.335L753.904 165.404L754.796 166.519L650.917 252.342L547.483 166.965L444.05 252.342Z" fill="#B8B8B8"/>
<path d="M444.05 280.429L340.617 194.829L237.406 280.429L133.973 194.829L30.5396 280.429L-73.3396 194.606L-72.4479 193.269L30.5396 278.423L133.973 193.046L237.406 278.423L340.617 193.046L444.05 278.423L547.483 193.046L650.917 278.423L753.904 193.269L754.796 194.606L650.917 280.429L547.483 194.829L444.05 280.429Z" fill="#B8B8B8"/>
<path d="M444.05 308.294L340.617 222.917L237.406 308.294L133.973 222.917L30.5396 308.294L-73.3396 222.471L-72.4479 221.356L30.5396 306.51L133.973 220.91L237.406 306.51L340.617 220.91L444.05 306.51L547.483 220.91L650.917 306.51L753.904 221.356L754.796 222.471L650.917 308.294L547.483 222.917L444.05 308.294Z" fill="#B8B8B8"/>
<path d="M444.05 336.381L340.617 251.004L237.406 336.381L133.973 251.004L30.5396 336.381L-73.3396 250.558L-72.4479 249.444L30.5396 334.598L133.973 248.998L237.406 334.598L340.617 248.998L444.05 334.598L547.483 248.998L650.917 334.598L753.904 249.444L754.796 250.558L650.917 336.381L547.483 251.004L444.05 336.381Z" fill="#B8B8B8"/>
<path d="M444.05 364.469L340.617 279.092L237.406 364.469L133.973 279.092L30.5396 364.469L-73.3396 278.646L-72.4479 277.531L30.5396 362.462L133.973 277.085L237.406 362.462L340.617 277.085L444.05 362.462L547.483 277.085L650.917 362.462L753.904 277.531L754.796 278.646L650.917 364.469L547.483 279.092L444.05 364.469Z" fill="#B8B8B8"/>
<path d="M444.05 392.556L340.617 306.956L237.406 392.556L133.973 306.956L30.5396 392.556L-73.3396 306.733L-72.4479 305.396L30.5396 390.55L133.973 305.173L237.406 390.55L340.617 305.173L444.05 390.55L547.483 305.173L650.917 390.55L753.904 305.396L754.796 306.733L650.917 392.556L547.483 306.956L444.05 392.556Z" fill="#B8B8B8"/>
<path d="M444.05 420.421L340.617 335.044L237.406 420.421L133.973 335.044L30.5396 420.421L-73.3396 334.598L-72.4479 333.483L30.5396 418.637L133.973 333.037L237.406 418.637L340.617 333.037L444.05 418.637L547.483 333.037L650.917 418.637L753.904 333.483L754.796 334.598L650.917 420.421L547.483 335.044L444.05 420.421Z" fill="#B8B8B8"/>
<path d="M444.05 448.508L340.617 363.131L237.406 448.508L133.973 363.131L30.5396 448.508L-73.3396 362.685L-72.4479 361.571L30.5396 446.725L133.973 361.125L237.406 446.725L340.617 361.125L444.05 446.725L547.483 361.125L650.917 446.725L753.904 361.571L754.796 362.685L650.917 448.508L547.483 363.131L444.05 448.508Z" fill="#B8B8B8"/>
<path d="M444.05 476.596L340.617 390.996L237.406 476.596L133.973 390.996L30.5396 476.596L-73.3396 390.773L-72.4479 389.658L30.5396 474.59L133.973 389.212L237.406 474.59L340.617 389.212L444.05 474.59L547.483 389.212L650.917 474.59L753.904 389.658L754.796 390.773L650.917 476.596L547.483 390.996L444.05 476.596Z" fill="#B8B8B8"/>
<path d="M444.05 504.683L340.617 419.083L237.406 504.683L133.973 419.083L30.5396 504.683L-73.3396 418.637L-72.4479 417.523L30.5396 502.677L133.973 417.3L237.406 502.677L340.617 417.3L444.05 502.677L547.483 417.3L650.917 502.677L753.904 417.523L754.796 418.637L650.917 504.683L547.483 419.083L444.05 504.683Z" fill="#B8B8B8"/>
<path d="M444.05 532.548L340.617 447.171L237.406 532.548L133.973 447.171L30.5396 532.548L-73.3396 446.725L-72.4479 445.61L30.5396 530.765L133.973 445.165L237.406 530.765L340.617 445.165L444.05 530.765L547.483 445.165L650.917 530.765L753.904 445.61L754.796 446.725L650.917 532.548L547.483 447.171L444.05 532.548Z" fill="#B8B8B8"/>
<path d="M444.05 560.635L340.617 475.258L237.406 560.635L133.973 475.258L30.5396 560.635L-73.3396 474.813L-72.4479 473.698L30.5396 558.852L133.973 473.252L237.406 558.852L340.617 473.252L444.05 558.852L547.483 473.252L650.917 558.852L753.904 473.698L754.796 474.813L650.917 560.635L547.483 475.258L444.05 560.635Z" fill="#B8B8B8"/>
<path d="M444.05 588.723L340.617 503.123L237.406 588.723L133.973 503.123L30.5396 588.723L-73.3396 502.9L-72.4479 501.785L30.5396 586.717L133.973 501.34L237.406 586.717L340.617 501.34L444.05 586.717L547.483 501.34L650.917 586.717L753.904 501.785L754.796 502.9L650.917 588.723L547.483 503.123L444.05 588.723Z" fill="#B8B8B8"/>
<path d="M444.05 616.81L340.617 531.21L237.406 616.81L133.973 531.21L30.5396 616.81L-73.3396 530.765L-72.4479 529.65L30.5396 614.804L133.973 529.427L237.406 614.804L340.617 529.427L444.05 614.804L547.483 529.427L650.917 614.804L753.904 529.65L754.796 530.765L650.917 616.81L547.483 531.21L444.05 616.81Z" fill="#B8B8B8"/>
<path d="M444.05 644.675L340.617 559.298L237.406 644.675L133.973 559.298L30.5396 644.675L-73.3396 558.852L-72.4479 557.737L30.5396 642.892L133.973 557.292L237.406 642.892L340.617 557.292L444.05 642.892L547.483 557.292L650.917 642.892L753.904 557.737L754.796 558.852L650.917 644.675L547.483 559.298L444.05 644.675Z" fill="#B8B8B8"/>
<path d="M444.05 672.762L340.617 587.385L237.406 672.762L133.973 587.385L30.5396 672.762L-73.3396 586.94L-72.4479 585.825L30.5396 670.756L133.973 585.379L237.406 670.756L340.617 585.379L444.05 670.756L547.483 585.379L650.917 670.756L753.904 585.825L754.796 586.94L650.917 672.762L547.483 587.385L444.05 672.762Z" fill="#B8B8B8"/>
<path d="M444.05 700.85L340.617 615.25L237.406 700.85L133.973 615.25L30.5396 700.85L-73.3396 615.027L-72.4479 613.912L30.5396 698.844L133.973 613.467L237.406 698.844L340.617 613.467L444.05 698.844L547.483 613.467L650.917 698.844L753.904 613.912L754.796 615.027L650.917 700.85L547.483 615.25L444.05 700.85Z" fill="#B8B8B8"/>
</g>
</g>
</svg>
